# xmcd
#
# Track frame offsets:
#	150
#	19759
#	32064
#	46527
#	66063
#	83091
#	98857
#	114975
#	136560
#	150821
#	163381
#	179532
#	191956
#	206254
#	218741
#	232984
#	247284
#	267059
#	282065
#	298647
#	311894
#	329136
#	341569
#
# Disc length: 4708 seconds
#
# Revision: 1
# Processed by: cddbd v1.5.2PL0 Copyright (c) Steve Scherf et al.
# Submitted via: audiograbber 1.82.02
#
DISCID=48126217
DTITLE=Various Artist - The Balladeers Vol 2
DYEAR=2000
DGENRE=Country
TTITLE0=Bluey Francis - Faces On The Rocks
TTITLE1=Rick Aitchison - Old Goodooga Track
TTITLE2=Lorraine Pfitzner - You Can Never Do The Wrong Thing In Mothers Eyes
TTITLE3=Ron Sadler - The Old Kero Tin
TTITLE4=Keith Jamieson - Bush Ballads Forever
TTITLE5=Stolzenberg Bros - Leichardt's Ghost
TTITLE6=Michael Pincott - Back To Those Rolling Plains
TTITLE7=Jim Welsh - Hennessy
TTITLE8=Big Mal Coad - Volunteer Fire Brigade
TTITLE9=Camp Oven Country - Down Along The River
TTITLE10=Dusty Rankin - Bringing Bonnie Home
TTITLE11=Bruce McMillan - Ghosts Of Camooweal
TTITLE12=Col Edmonds - Book Of Memories
TTITLE13=Ted Kittel - The Army Overcoat
TTITLE14=Jack Pincott - Up Where The Brighter Stars Shine
TTITLE15=Gordon Larkin - Rubber On The Track
TTITLE16=Lorri Spry - Jimmy Spry
TTITLE17=Les Lawson - Bushie By A Mile
TTITLE18=Dave McCallum - Faces On The Rail
TTITLE19=Lynne Bennett - Trial Run
TTITLE20=Peter Coad - The Buddy Williams Travelling Song
TTITLE21=Leanda O'Brien - Two Old Mates And Roses
TTITLE22=Nev Molloy - The Queensland Express
EXTD=
EXTT0=
EXTT1=
EXTT2=
EXTT3=
EXTT4=
EXTT5=
EXTT6=
EXTT7=
EXTT8=
EXTT9=
EXTT10=
EXTT11=
EXTT12=
EXTT13=
EXTT14=
EXTT15=
EXTT16=
EXTT17=
EXTT18=
EXTT19=
EXTT20=
EXTT21=
EXTT22=
PLAYORDER=
